# xmcd
#
# Track frame offsets:
#	150
#	21280
#	43917
#	65957
#	88255
#	110937
#	135775
#	159235
#	184715
#
# Disc length: 2684 seconds
#
# Revision: 1
# Processed by: cddbd v1.5PL3 Copyright (c) Steve Scherf et al.
# Submitted via: CDex 1.50Beta5
#
DISCID=7d0a7a09
DTITLE=dip in the pool - 7
DYEAR=1994
DGENRE=Pop
TTITLE0=RAbbit
TTITLE1=カミラ
TTITLE2=light’s gone,The
TTITLE3=Nostalgia
TTITLE4=Atlantis
TTITLE5=君の瞳に映る私
TTITLE6=II columns
TTITLE7=青く光る夜のプール
TTITLE8=なな
EXTD=
EXTT0=
EXTT1=
EXTT2=
EXTT3=
EXTT4=
EXTT5=
EXTT6=
EXTT7=
EXTT8=
PLAYORDER=
